<svg width="54" height="54" viewBox="0 0 54 54" fill="none" xmlns="http://www.w3.org/2000/svg">
<path d="M26.9999 29.403C28.3271 29.403 29.4029 28.3272 29.4029 27C29.4029 25.6729 28.3271 24.597 26.9999 24.597C25.6728 24.597 24.5969 25.6729 24.5969 27C24.5969 28.3272 25.6728 29.403 26.9999 29.403Z" fill="black" stroke="black" stroke-width="2" stroke-miterlimit="10" stroke-linejoin="round"/>
<path d="M19.46 8.87L34.53 45.26" stroke="black" stroke-width="2" stroke-linejoin="round"/>
<path d="M8.72998 34.54L45.1 19.47" stroke="black" stroke-width="2" stroke-linejoin="round"/>
<path d="M8.75 19.4399L45.06 34.4799" stroke="black" stroke-width="2" stroke-linejoin="round"/>
<path d="M34.43 8.95996L19.46 45.09" stroke="black" stroke-width="2" stroke-linejoin="round"/>
<path d="M26.6801 29C27.7846 29 28.6801 28.1046 28.6801 27C28.6801 25.8954 27.7846 25 26.6801 25C25.5755 25 24.6801 25.8954 24.6801 27C24.6801 28.1046 25.5755 29 26.6801 29Z" fill="black"/>
<path d="M27 53C41.3594 53 53 41.3594 53 27C53 12.6406 41.3594 1 27 1C12.6406 1 1 12.6406 1 27C1 41.3594 12.6406 53 27 53Z" fill="#007B05"/>
<path d="M27 46.63C37.8413 46.63 46.63 37.8413 46.63 27C46.63 16.1586 37.8413 7.37 27 7.37C16.1586 7.37 7.37 16.1586 7.37 27C7.37 37.8413 16.1586 46.63 27 46.63Z" fill="#88FF5F"/>
<path d="M19.46 8.87L34.53 45.26" stroke="#007B05" stroke-width="2" stroke-linejoin="round"/>
<path d="M34.43 8.95996L19.46 45.09" stroke="#007B05" stroke-width="2" stroke-linejoin="round"/>
<path d="M8.72998 34.54L45.1 19.47" stroke="#007B05" stroke-width="2" stroke-linejoin="round"/>
<path d="M8.75 19.4399L45.06 34.4799" stroke="#007B05" stroke-width="2" stroke-linejoin="round"/>
<path d="M27 29.403C28.3272 29.403 29.403 28.3272 29.403 27C29.403 25.6729 28.3272 24.597 27 24.597C25.6729 24.597 24.597 25.6729 24.597 27C24.597 28.3272 25.6729 29.403 27 29.403Z" fill="#007B05" stroke="#007B05" stroke-width="2" stroke-miterlimit="10" stroke-linejoin="round"/>
<path d="M53 27C53 33.8956 50.2607 40.5088 45.3848 45.3848C40.5088 50.2607 33.8956 53 27 53C20.1044 53 13.4912 50.2607 8.61522 45.3848C3.73928 40.5088 1 33.8956 1 27C1 20.1044 3.73928 13.4912 8.61522 8.61522C13.4912 3.73928 20.1044 1 27 1C33.8956 1 40.5088 3.73928 45.3848 8.61522C50.2607 13.4912 53 20.1044 53 27" stroke="black" stroke-width="2" stroke-miterlimit="10"/>
<path d="M46.63 27C46.63 29.5778 46.1222 32.1305 45.1357 34.5121C44.1492 36.8937 42.7033 39.0577 40.8805 40.8805C39.0577 42.7033 36.8937 44.1492 34.5121 45.1357C32.1305 46.1222 29.5778 46.63 27 46.63C21.7938 46.63 16.8008 44.5618 13.1195 40.8805C9.43815 37.1992 7.37 32.2062 7.37 27C7.37 21.7938 9.43815 16.8008 13.1195 13.1195C16.8008 9.43815 21.7938 7.37 27 7.37C29.5778 7.37 32.1305 7.87774 34.5121 8.86424C36.8937 9.85074 39.0577 11.2967 40.8805 13.1195C42.7033 14.9423 44.1492 17.1063 45.1357 19.4879C46.1222 21.8695 46.63 24.4221 46.63 27" stroke="black" stroke-width="2" stroke-miterlimit="10"/>
</svg>
